# xmcd
#
# Track frame offsets:
#	150
#	24690
#	47440
#	72565
#	95770
#	117520
#	138987
#	163200
#	187642
#	207142
#
# Disc length: 3061 seconds
#
# Revision: 1
# Processed by: cddbd v1.5.1PL0 Copyright (c) Steve Scherf et al.
# Submitted via: CDex 1.50Beta5
#
DISCID=8c0bf30a
DTITLE=三石琴乃 - 優しい大人になるために
DYEAR=1996
DGENRE=Pop
TTITLE0=10年たったら
TTITLE1=痛い目にあいたい
TTITLE2=あなたになりたい
TTITLE3=あなたでなくては
TTITLE4=未来で見つけたもの
TTITLE5=Bath-time is Happy-time
TTITLE6=新しい生活
TTITLE7=あの日、ポケベルの鳴った海で
TTITLE8=あきれかえるほど
TTITLE9=優しい大人になるために
EXTD=
EXTT0=
EXTT1=
EXTT2=
EXTT3=
EXTT4=
EXTT5=
EXTT6=
EXTT7=
EXTT8=
EXTT9=
PLAYORDER=
